<svg width="14" height="15" viewBox="0 0 14 15" fill="none" xmlns="http://www.w3.org/2000/svg">
<g clip-path="url(#clip0_1309_288)">
<path d="M7.0001 0.988037C3.4713 0.988037 0.600098 3.85924 0.600098 7.38804C0.600098 10.9168 3.4713 13.788 7.0001 13.788C10.5289 13.788 13.4001 10.9168 13.4001 7.38804C13.4001 3.85924 10.5289 0.988037 7.0001 0.988037ZM10.4273 5.48484L6.6273 10.2848C6.4809 10.4696 6.2609 10.5808 6.0249 10.588C6.0169 10.588 6.0081 10.588 6.0001 10.588C5.7737 10.588 5.5569 10.492 5.4057 10.3232L3.6057 8.32324C3.3105 7.99444 3.3369 7.48884 3.6649 7.19364C3.9929 6.89764 4.4985 6.92484 4.7945 7.25284L5.9609 8.54884L9.1729 4.49204C9.4473 4.14644 9.9497 4.08724 10.2969 4.36084C10.6433 4.63524 10.7017 5.13844 10.4273 5.48484Z" fill="currentColor"/>
</g>
<defs>
<clipPath id="clip0_1309_288">
<rect width="14" height="14" fill="white" transform="translate(0 0.387939)"/>
</clipPath>
</defs>
</svg>
