<svg viewBox="0 0 14 14" fill="none" xmlns="http://www.w3.org/2000/svg">
<g clip-path="url(#clip0_1232_3381)">
<path d="M7.00049 1.10034C10.253 1.10055 12.8999 3.74812 12.8999 7.00073C12.8997 10.2532 10.2529 12.8999 7.00049 12.9001C3.74788 12.9001 1.10031 10.2533 1.1001 7.00073C1.1001 3.74799 3.74775 1.10034 7.00049 1.10034ZM7.00049 2.90015C6.28215 2.90015 5.69992 3.48239 5.69971 4.19995V7.00073C5.69981 7.34541 5.83708 7.67614 6.08057 7.91968L8.08057 9.91968C8.33424 10.1733 8.66851 10.3005 9.00049 10.3005C9.33234 10.3004 9.66586 10.1732 9.91943 9.91968C10.4271 9.41189 10.4272 8.58858 9.91943 8.08081L8.30029 6.46167V4.19995C8.30008 3.48252 7.71864 2.90036 7.00049 2.90015Z" fill="currentColor" stroke="currentColor"/>
</g>
<defs>
<clipPath id="clip0_1232_3381">
<rect width="14" height="14" fill="white"/>
</clipPath>
</defs>
</svg>
