<svg width="14" height="14" viewBox="0 0 14 14" fill="none" xmlns="http://www.w3.org/2000/svg">
<path d="M1.68899 8.05122C1.30419 7.41122 1.30419 6.58802 1.68899 5.94802C2.45859 4.57682 4.22899 2.19922 7.00019 2.19922C9.77139 2.19922 11.5418 4.57602 12.3114 5.94802C12.6962 6.58802 12.6962 7.41122 12.3114 8.05122C11.5418 9.42242 9.77139 11.8 7.00019 11.8C4.22899 11.8 2.45859 9.51442 1.68899 8.05122Z" stroke="currentColor" stroke-width="2" stroke-linecap="round" stroke-linejoin="round"/>
<path d="M6.99961 9.4001C8.32509 9.4001 9.39961 8.32558 9.39961 7.0001C9.39961 5.67461 8.32509 4.6001 6.99961 4.6001C5.67413 4.6001 4.59961 5.67461 4.59961 7.0001C4.59961 8.32558 5.67413 9.4001 6.99961 9.4001Z" fill="currentColor"/>
</svg>
