<svg viewBox="0 0 14 14" fill="none" xmlns="http://www.w3.org/2000/svg">
<path d="M12.8769 7.10922C12.8769 6.61589 12.8369 6.25589 12.7503 5.88257H7.11694V8.1092H10.4236C10.3569 8.66255 9.99693 9.49588 9.19692 10.0558L9.1857 10.1304L10.9669 11.5102L11.0903 11.5225C12.2236 10.4759 12.8769 8.93587 12.8769 7.10922Z" fill="#4285F4"/>
<path d="M7.11707 12.9759C8.73704 12.9759 10.097 12.4425 11.0904 11.5226L9.19705 10.0559C8.69039 10.4092 8.01038 10.6559 7.11707 10.6559C5.53042 10.6559 4.18377 9.60926 3.70373 8.1626L3.63336 8.16857L1.7813 9.6019L1.75708 9.66923C2.74373 11.6292 4.77039 12.9759 7.11707 12.9759Z" fill="#34A853"/>
<path d="M3.70357 8.16261C3.57691 7.78929 3.5036 7.38926 3.5036 6.97595C3.5036 6.56259 3.57691 6.16261 3.69691 5.78928L3.69355 5.70977L1.81828 4.25342L1.75693 4.2826C1.35028 5.09594 1.11694 6.00929 1.11694 6.97595C1.11694 7.94261 1.35028 8.85591 1.75693 9.66925L3.70357 8.16261Z" fill="#FBBC05"/>
<path d="M7.11707 3.29605C8.24371 3.29605 9.0037 3.78271 9.43704 4.1894L11.1304 2.53607C10.0904 1.56941 8.73704 0.976074 7.11707 0.976074C4.77039 0.976074 2.74373 2.32272 1.75708 4.2827L3.69706 5.78938C4.18377 4.34272 5.53042 3.29605 7.11707 3.29605Z" fill="#EB4335"/>
</svg>
