<svg viewBox="0 0 14 14" fill="none" xmlns="http://www.w3.org/2000/svg">
<path d="M4.19995 6.1999V4.1999C4.19995 2.6535 5.45355 1.3999 6.99995 1.3999C8.54635 1.3999 9.79995 2.6535 9.79995 4.1999V6.1999" stroke="currentColor" stroke-width="2" stroke-linecap="round" stroke-linejoin="round"/>
<path d="M3.80029 5.8999H10.1997C11.247 5.8999 12.1001 6.753 12.1001 7.80029V10.9995C12.1001 12.0468 11.247 12.8999 10.1997 12.8999H3.80029C2.753 12.8999 1.8999 12.0468 1.8999 10.9995V7.80029C1.8999 6.753 2.753 5.8999 3.80029 5.8999ZM6.99951 7.69971C6.28136 7.69992 5.69992 8.28208 5.69971 8.99951V9.80029C5.69992 10.5177 6.28136 11.0999 6.99951 11.1001C7.71785 11.1001 8.30008 10.5179 8.30029 9.80029V8.99951C8.30008 8.28195 7.71785 7.69971 6.99951 7.69971Z" fill="currentColor" stroke="currentColor"/>
</svg>
