<svg viewBox="0 0 21 16" fill="none" xmlns="http://www.w3.org/2000/svg">
<path d="M20.4708 11.0072C20.4116 9.90413 20.2308 9.37605 20.0126 8.57806C19.5918 7.05543 18.1953 3.70213 16.724 2.31739C15.3493 1.0236 13.931 0.859307 12.8587 0.88571C11.7209 0.912114 10.9291 1.33751 10.4802 1.83625C10.0314 1.33751 9.23959 0.912114 8.10182 0.88571C7.0295 0.859307 5.61118 1.0236 4.2365 2.31739C2.76518 3.70213 1.36868 7.05837 0.947861 8.57806C0.72654 9.37605 0.54886 9.90413 0.489633 11.0072C0.452227 11.7084 0.517689 12.5035 0.897987 13.1195C1.47467 14.0495 2.34125 14.5131 3.28887 14.6598C4.57627 14.8593 6.04135 14.5072 6.95781 13.6447C7.15107 13.9469 7.69658 14.5336 8.48835 14.8123C9.08997 15.0236 9.62301 15.1174 10.4771 15.1174C11.3312 15.1174 11.8643 15.0236 12.4659 14.8123C13.2577 14.5336 13.8032 13.9469 13.9964 13.6447C14.9129 14.5072 16.378 14.8593 17.6654 14.6598C18.613 14.5131 19.4796 14.0525 20.0562 13.1195C20.4365 12.5035 20.502 11.7084 20.4646 11.0072H20.4708Z" fill="black"/>
<path d="M15.9477 7.53608C15.6921 6.43298 14.8411 5.69367 13.9029 5.46483C12.9646 5.236 12.0762 5.55871 11.8455 5.64086C11.5026 5.76408 11.0943 5.95477 10.4739 5.95477C9.85362 5.95477 9.44527 5.76701 9.10238 5.64086C8.87171 5.55871 7.98642 5.236 7.04503 5.46483C6.10364 5.69367 5.25265 6.43298 5.00015 7.53608C4.74454 8.63918 5.03444 10.0034 5.99454 10.816C6.858 11.5465 7.58119 11.8282 8.05188 11.9778C8.72831 12.189 9.67919 12.3358 10.4741 12.3358C11.269 12.3358 12.2196 12.189 12.896 11.9778C13.3667 11.8311 14.0899 11.5465 14.9533 10.816C15.9166 10.0034 16.2033 8.63918 15.9477 7.53608ZM7.69341 8.28712C7.24765 8.28712 6.88294 7.94681 6.88294 7.52434C6.88294 7.10188 7.24453 6.76156 7.69341 6.76156C8.14228 6.76156 8.50388 7.10188 8.50388 7.52434C8.50388 7.94681 8.14228 8.28712 7.69341 8.28712ZM13.2545 8.28712C12.8087 8.28712 12.444 7.94681 12.444 7.52434C12.444 7.10188 12.8056 6.76156 13.2545 6.76156C13.7034 6.76156 14.0649 7.10188 14.0649 7.52434C14.0649 7.94681 13.7034 8.28712 13.2545 8.28712Z" fill="white"/>
</svg>
