<svg width="14" height="15" viewBox="0 0 14 15" fill="none" xmlns="http://www.w3.org/2000/svg">
<g clip-path="url(#clip0_1288_521)">
<path d="M7.0001 13.788C10.5289 13.788 13.4001 10.9168 13.4001 7.38804C13.4001 3.85924 10.5289 0.988037 7.0001 0.988037C3.4713 0.988037 0.600098 3.85924 0.600098 7.38804C0.600098 10.9168 3.4713 13.788 7.0001 13.788ZM6.2001 4.18804C6.2001 3.74644 6.5577 3.38804 7.0001 3.38804C7.4425 3.38804 7.8001 3.74644 7.8001 4.18804V7.78804C7.8001 8.22964 7.4425 8.58804 7.0001 8.58804C6.5577 8.58804 6.2001 8.22964 6.2001 7.78804V4.18804ZM7.0001 9.38804C7.5513 9.38804 8.0001 9.83684 8.0001 10.388C8.0001 10.9392 7.5513 11.388 7.0001 11.388C6.4489 11.388 6.0001 10.9392 6.0001 10.388C6.0001 9.83684 6.4489 9.38804 7.0001 9.38804Z" fill="currentColor"/>
</g>
<defs>
<clipPath id="clip0_1288_521">
<rect width="14" height="14" fill="white" transform="translate(0 0.387939)"/>
</clipPath>
</defs>
</svg>
