<svg width="14" height="15" viewBox="0 0 14 15" fill="none" xmlns="http://www.w3.org/2000/svg">
<g clip-path="url(#clip0_1310_178)">
<path d="M11.5249 2.85739C9.02852 0.361015 4.96582 0.361015 2.46945 2.85739C-0.0269245 5.35376 -0.0269245 9.41566 2.46945 11.912C3.71803 13.1606 5.3572 13.7841 6.99717 13.7841C8.63714 13.7841 10.2771 13.1598 11.5249 11.912C14.0213 9.41566 14.0213 5.35376 11.5249 2.85739ZM9.96416 9.22037C10.2771 9.53332 10.2771 10.0392 9.96416 10.3521C9.80809 10.5082 9.60319 10.5866 9.39829 10.5866C9.1934 10.5866 8.9885 10.5082 8.83243 10.3521L6.99717 8.51684L5.16191 10.3521C5.00583 10.5082 4.80094 10.5866 4.59604 10.5866C4.39115 10.5866 4.18625 10.5082 4.03018 10.3521C3.71723 10.0392 3.71723 9.53332 4.03018 9.22037L5.86544 7.38511L4.03018 5.54985C3.71723 5.2369 3.71723 4.73106 4.03018 4.41812C4.34312 4.10517 4.84896 4.10517 5.16191 4.41812L6.99717 6.25338L8.83243 4.41812C9.14538 4.10517 9.65121 4.10517 9.96416 4.41812C10.2771 4.73106 10.2771 5.2369 9.96416 5.54985L8.1289 7.38511L9.96416 9.22037Z" fill="currentColor"/>
</g>
<defs>
<clipPath id="clip0_1310_178">
<rect width="14" height="14" fill="white" transform="translate(0 0.387939)"/>
</clipPath>
</defs>
</svg>
